<?xml version="1.0" encoding="utf-8"?>
<!-- Generator: Adobe Illustrator 15.0.0, SVG Export Plug-In . SVG Version: 6.00 Build 0)  -->
<!DOCTYPE svg PUBLIC "-//W3C//DTD SVG 1.0//EN" "http://www.w3.org/TR/2001/REC-SVG-20010904/DTD/svg10.dtd">
<svg version="1.0"
	 id="Logo" xmlns:dc="http://purl.org/dc/elements/1.1/" xmlns:cc="http://creativecommons.org/ns#" xmlns:rdf="http://www.w3.org/1999/02/22-rdf-syntax-ns#" xmlns:svg="http://www.w3.org/2000/svg"
	 xmlns="http://www.w3.org/2000/svg" xmlns:xlink="http://www.w3.org/1999/xlink" x="0px" y="0px" width="612px" height="792px"
	 viewBox="0 0 612 792" enable-background="new 0 0 612 792" xml:space="preserve">
<g id="g864">
	<g id="g854">
		<path id="path852" fill="#0C0C0C" d="M78.452,368.547l-18.425-5.656l-16.682-8.945l-14.542-11.843l-12.003-14.348l-9.067-16.459
			l-5.732-18.178L0,273.613V90.289h63.692v182.468l0.72,6.857l2.065,6.391l3.267,5.787l4.325,5.044L79.308,301l6.01,3.146
			l6.637,1.988h96.323l6.639-1.988l6.01-3.146l5.238-4.164l4.323-5.044l3.266-5.787l2.064-6.391l0.72-6.857V90.289h63.692v183.324
			l-2,19.505l-5.732,18.178l-9.067,16.459l-12.004,14.348l-14.542,11.843l-16.683,8.946l-18.425,5.655H78.452z"/>
	</g>
	<path id="polygon856" fill="#0C0C0C" d="M612,90.289h-82.367L394.871,196.346V90.289h-63.692v280.23h63.692V263.764L529.633,370.52
		h82.018l-177.284-140.44L612,90.289z"/>
	<g id="g860">
		<path id="path858" fill="#0C0C0C" d="M280.23,701.711H96.906l-19.505-2.036l-18.178-5.829l-16.459-9.205l-14.348-12.161
			l-11.843-14.701l-8.945-16.821l-5.656-18.525V500.739l5.656-18.522l8.945-16.819l11.843-14.699l14.348-12.161l16.459-9.204
			l18.178-5.829l19.505-2.035H280.23v63.691H97.762l-6.857,0.721l-6.391,2.065l-5.787,3.267l-5.044,4.324l-4.164,5.239l-3.146,6.01
			l-1.988,6.638v96.319l1.988,6.637l3.146,6.011l4.164,5.238l5.044,4.325l5.787,3.267l6.391,2.065l6.857,0.721H280.23V701.711z"/>
	</g>
	<path id="path862" fill="#0C0C0C" d="M513.188,421.469h-83.789l-10.027,0.501l-9.741,1.471l-9.405,2.393l-9.02,3.263l-8.584,4.086
		l-8.099,4.859l-7.563,5.584l-6.979,6.26l-6.344,6.885l-5.659,7.462l-4.926,7.991l-4.142,8.469l-3.308,8.898l-2.425,9.28
		l-1.49,9.611l-0.509,193.217h63.692v-63.691h152.858v63.691h63.691V518.375l-0.51-9.895l-1.492-9.61l-2.426-9.28l-3.309-8.898
		l-4.142-8.47l-4.926-7.99l-5.66-7.462l-6.344-6.885l-6.979-6.26l-7.563-5.584l-8.099-4.859l-8.585-4.086l-9.02-3.263l-9.407-2.393
		l-9.742-1.471L513.188,421.469z M394.871,574.327l0.183-58.563l0.538-3.379l0.873-3.262l1.191-3.129l1.492-2.978l1.775-2.81
		l2.039-2.623l2.285-2.421l2.515-2.201l2.725-1.963l2.918-1.709l3.092-1.437l3.249-1.147l3.389-0.841l3.509-0.518l3.612-0.176
		h82.077l3.612,0.176l3.509,0.518l3.388,0.841l3.249,1.147l3.093,1.437l2.917,1.709l2.726,1.963l2.514,2.201l2.286,2.421
		l2.039,2.623l1.774,2.81l1.492,2.978l1.191,3.129l0.874,3.262l0.537,3.379l0.183,58.562L394.871,574.327z"/>
</g>
<g id="g866">
</g>
<g id="g868">
</g>
<g id="g870">
</g>
<g id="g872">
</g>
<g id="g874">
</g>
<g id="g876">
</g>
</svg>
